<?xml version="1.0" encoding="UTF-8"?>
<svg id="Layer_1" data-name="Layer 1" xmlns="http://www.w3.org/2000/svg" viewBox="0 0 309.77 58.23">
  <path d="m180.95,12.75c-12.17-3-14.29,12.52-14.29,12.52,17.83-12.43,17.99,5.07,17.99,5.07-1.29,5.11-4.65,7.49-8.08,8.53-5.36,1.63-11.19.11-15.24-3.74-8.04-7.64-19.05-22.96-19.05-22.96-15.32-20.29-35.55-6.53-42.68-.58-1.51,1.26-3.73,1.26-5.24,0-7.13-5.95-27.36-19.7-42.68.58,0,0-11.01,15.32-19.05,22.96-4.05,3.85-9.88,5.37-15.24,3.74-3.43-1.04-6.78-3.42-8.08-8.53,0,0,.17-17.5,17.99-5.07,0,0-2.13-15.52-14.29-12.52-4.72,1.17-8.51,4.57-10.61,8.94-3.45,7.18-5.89,20.84,12.92,31.72,3.66,2.12,7.82,3.26,12.06,3.32,12.53.2,41.93-2.64,65.61-22.08,2.31-1.89,5.66-1.89,7.97,0,23.68,19.44,53.08,22.28,65.61,22.08,4.24-.07,8.39-1.2,12.06-3.32,18.81-10.88,16.37-24.54,12.92-31.72-2.09-4.37-5.88-7.77-10.6-8.94h0Z"/>
  <g>
    <path d="m217.75,2.52v18.97h-4.31v-12.81s-1.72,12.81-1.72,12.81h-3.06l-1.81-12.52v12.52h-4.32V2.52h6.38c.19,1.14.38,2.49.59,4.03l.7,4.83,1.13-8.86h6.42Z"/>
    <path d="m223.82,11.96h-4.44v-1.04c0-1.2.14-2.13.42-2.78s.83-1.23,1.67-1.73,1.92-.75,3.26-.75c1.6,0,2.81.28,3.62.85s1.3,1.26,1.46,2.09.25,2.52.25,5.09v7.8h-4.61v-1.39c-.29.56-.66.97-1.12,1.25-.46.28-1,.42-1.63.42-.83,0-1.59-.23-2.28-.7s-1.04-1.48-1.04-3.05v-1.28c0-1.16.18-1.96.55-2.38s1.28-.91,2.73-1.48c1.55-.61,2.39-1.02,2.5-1.23s.16-.64.16-1.29c0-.81-.06-1.34-.18-1.59s-.32-.37-.6-.37c-.32,0-.52.1-.6.31s-.12.74-.12,1.61v1.63Zm1.5,2.13c-.76.55-1.2,1.02-1.32,1.39s-.18.91-.18,1.62c0,.8.05,1.32.16,1.56s.31.35.63.35.49-.09.58-.28.13-.67.13-1.45v-3.2Z"/>
    <path d="m236.5,5.94l-.08,1.43c.34-.57.76-1,1.26-1.29.5-.29,1.07-.43,1.72-.43.81,0,1.48.19,1.99.57s.85.87,1,1.45.22,1.55.22,2.91v10.9h-4.73v-10.77c0-1.07-.04-1.72-.11-1.96s-.27-.35-.59-.35-.55.13-.63.4-.13.99-.13,2.16v10.51h-4.73V5.94h4.82Z"/>
    <path d="m246.99,2.52v1.7c0,.88-.11,1.61-.32,2.19s-.58,1.06-1.1,1.45-1.11.66-1.76.8v-1.37c.47-.26.73-.61.8-1.05h-.8v-3.71h3.18Z"/>
    <path d="m257.93,10.91h-4.2v-.84c0-.72-.04-1.17-.12-1.37s-.29-.29-.62-.29c-.27,0-.46.09-.6.26s-.2.44-.2.79c0,.48.03.83.1,1.05s.27.47.6.73,1.01.65,2.04,1.16c1.38.67,2.28,1.3,2.71,1.9s.64,1.46.64,2.59c0,1.27-.16,2.22-.49,2.87s-.88,1.14-1.65,1.49-1.7.52-2.78.52c-1.2,0-2.23-.19-3.09-.56s-1.44-.88-1.76-1.52-.48-1.61-.48-2.91v-.75h4.2v.98c0,.84.05,1.38.16,1.63s.31.38.63.38c.34,0,.57-.08.7-.25s.2-.52.2-1.06c0-.74-.09-1.21-.26-1.39-.18-.19-1.1-.74-2.75-1.66-1.39-.78-2.24-1.49-2.54-2.13s-.46-1.39-.46-2.27c0-1.24.16-2.16.49-2.75s.88-1.04,1.67-1.37,1.7-.48,2.74-.48,1.91.13,2.63.39,1.28.61,1.66,1.04.62.83.7,1.2.12.94.12,1.72v.9Z"/>
    <path d="m211.06,31.32l2.82,18.97h-5.04l-.26-3.41h-1.76l-.3,3.41h-5.1l2.52-18.97h7.13Zm-2.61,12.2c-.25-2.15-.5-4.8-.75-7.97-.5,3.63-.82,6.29-.95,7.97h1.7Z"/>
    <path d="m219.45,31.32v18.97h-4.88v-18.97h4.88Z"/>
    <path d="m226.14,32.67v2.45h1.28v2.46h-1.28v8.32c0,1.02.05,1.59.16,1.71s.54.18,1.32.18v2.51h-1.91c-1.08,0-1.85-.04-2.31-.13s-.87-.3-1.22-.62-.57-.7-.66-1.11-.13-1.4-.13-2.95v-7.9h-1.02v-2.46h1.02v-2.45h4.75Z"/>
    <path d="m239.18,42.79h-6.13v3.36c0,.7.05,1.16.15,1.36s.3.3.59.3c.36,0,.6-.13.72-.4s.18-.79.18-1.56v-2.05h4.49v1.15c0,.96-.06,1.7-.18,2.21s-.4,1.07-.85,1.65-1.01,1.03-1.69,1.32-1.54.44-2.57.44-1.88-.14-2.65-.43-1.36-.69-1.79-1.19-.72-1.06-.88-1.66-.25-1.49-.25-2.64v-4.54c0-1.36.18-2.43.55-3.22s.97-1.39,1.8-1.8,1.8-.63,2.88-.63c1.33,0,2.42.25,3.29.76s1.47,1.17,1.82,2,.52,2,.52,3.51v2.06Zm-4.75-2.53v-1.14c0-.8-.04-1.32-.13-1.56s-.26-.35-.53-.35c-.33,0-.53.1-.61.3s-.12.74-.12,1.61v1.14h1.38Z"/>
    <path d="m245.47,34.74l-.19,2.04c.69-1.46,1.68-2.24,2.99-2.33v5.47c-.87,0-1.5.12-1.91.35s-.66.56-.75.98-.14,1.38-.14,2.89v6.14h-4.73v-15.55h4.73Z"/>
    <path d="m254.14,34.74l-.08,1.43c.34-.57.76-1,1.26-1.29.5-.29,1.07-.43,1.72-.43.81,0,1.48.19,1.99.57s.85.87,1,1.45.22,1.55.22,2.91v10.9h-4.73v-10.77c0-1.07-.04-1.72-.11-1.96s-.27-.35-.59-.35-.55.13-.63.4-.13.99-.13,2.16v10.51h-4.73v-15.55h4.82Z"/>
    <path d="m266.1,40.76h-4.44v-1.04c0-1.2.14-2.13.42-2.78s.83-1.23,1.67-1.73,1.92-.75,3.26-.75c1.6,0,2.81.28,3.62.85s1.3,1.26,1.46,2.09.25,2.52.25,5.09v7.8h-4.61v-1.39c-.29.56-.66.97-1.12,1.25-.46.28-1,.42-1.63.42-.83,0-1.59-.23-2.28-.7s-1.04-1.48-1.04-3.05v-1.28c0-1.16.18-1.96.55-2.38s1.28-.91,2.73-1.48c1.55-.61,2.39-1.02,2.5-1.23s.16-.64.16-1.29c0-.81-.06-1.34-.18-1.59s-.32-.37-.6-.37c-.32,0-.52.1-.6.31s-.12.74-.12,1.61v1.63Zm1.5,2.13c-.76.55-1.2,1.02-1.32,1.39s-.18.91-.18,1.62c0,.8.05,1.32.16,1.56s.31.35.63.35.49-.09.58-.28.13-.67.13-1.45v-3.2Z"/>
    <path d="m278.96,32.67v2.45h1.28v2.46h-1.28v8.32c0,1.02.05,1.59.16,1.71s.54.18,1.32.18v2.51h-1.91c-1.08,0-1.85-.04-2.31-.13s-.87-.3-1.22-.62-.57-.7-.66-1.11-.13-1.4-.13-2.95v-7.9h-1.02v-2.46h1.02v-2.45h4.75Z"/>
    <path d="m286.15,31.32v2.47h-4.88v-2.47h4.88Zm0,3.42v15.55h-4.88v-15.55h4.88Z"/>
    <path d="m297.65,34.74l-2.21,15.55h-6.19l-2.38-15.55h4.23l1.33,11.36c.1-.83.28-2.87.53-6.1.13-1.8.29-3.56.46-5.25h4.23Z"/>
    <path d="m309.06,42.79h-6.13v3.36c0,.7.05,1.16.15,1.36s.3.3.59.3c.36,0,.6-.13.72-.4s.18-.79.18-1.56v-2.05h4.49v1.15c0,.96-.06,1.7-.18,2.21s-.4,1.07-.85,1.65-1.01,1.03-1.69,1.32-1.54.44-2.57.44-1.88-.14-2.65-.43-1.36-.69-1.79-1.19-.72-1.06-.88-1.66-.25-1.49-.25-2.64v-4.54c0-1.36.18-2.43.55-3.22s.97-1.39,1.8-1.8,1.8-.63,2.88-.63c1.33,0,2.42.25,3.29.76s1.47,1.17,1.82,2,.52,2,.52,3.51v2.06Zm-4.75-2.53v-1.14c0-.8-.04-1.32-.13-1.56s-.26-.35-.53-.35c-.33,0-.53.1-.61.3s-.12.74-.12,1.61v1.14h1.38Z"/>
  </g>
</svg>